<svg xmlns="http://www.w3.org/2000/svg" version="1.1" xmlns:xlink="http://www.w3.org/1999/xlink" xmlns:svgjs="http://svgjs.dev/svgjs" viewBox="0 0 12.595152670760193 3.5820642572717514"><g transform="matrix(0.7265606266670713,0,0,0.7265606266670713,4.34890667370013,1.4041385949356602)"><g transform="matrix(1,0,0,1,0,0)" clip-path="url(#SvgjsClipPath2126)"><g clip-path="url(#acaa43cc4-2093-49ff-8743-a3b81673898c04f1bc11-af5f-4650-b250-af671e3ae7c3)"><path d=" M -1.8575318118326227 1.2422369247437886 C -1.695979239919395 1.3537987446867004 -1.5042328101653621 1.413412169545131 -1.3079035338541125 1.4131148080575526 C -0.8923753612578751 1.4131148080575529 -0.5379989184769696 1.1516803205917228 -0.4000388812127351 0.784379611509421 C -0.516487387988739 1.272986269736037 -0.9559558122573617 1.6363836769152325 -1.4801258878233905 1.6363836769152325 C -1.6988409044607793 1.6363836769152325 -1.90276674388751 1.5730634460426194 -2.074772247751061 1.4639011028190805 C -1.9964459895620612 1.3986725910160596 -1.9240180542488667 1.3228184240323606 -1.8575318118326227 1.2422369247437886" fill="#3a868f" transform="matrix(1,0,0,1,0,0)" fill-rule="nonzero"></path></g><g clip-path="url(#acaa43cc4-2093-49ff-8743-a3b81673898c04f1bc11-af5f-4650-b250-af671e3ae7c3)"><path d=" M -1.4801258878233903 -0.5845083659099541 C -1.3087709342770242 -0.5845083659099541 -1.1466104252135307 -0.5456921969846193 -1.0017545545871418 -0.47643027321505554 C -1.1004755620837612 -0.5092252689258658 -1.2038344783433037 -0.5259050373616295 -1.3078601638329657 -0.5258287272999228 C -1.8432197048545662 -0.5258287272999229 -2.27722350645884 -0.09173818565335806 -2.27722350645884 0.4436647253893877 C -2.27722350645884 0.6471568646046624 -2.2145104558822655 0.8360333066938612 -2.1072997636102793 0.99199190273353 C -2.170576624461747 1.0870156190635953 -2.240879428738806 1.17470980182005 -2.3195092770758245 1.2529059499456126 C -2.4947105700468883 1.0512472463343328 -2.590995955214703 0.7929867348218143 -2.590571909235983 0.5258509154603477 C -2.5905719092359836 -0.0874011835387955 -2.0934213568436792 -0.5845083659099541 -1.4801258878233903 -0.5845083659099541" fill="#225777" transform="matrix(1,0,0,1,0,0)" fill-rule="nonzero"></path></g><g clip-path="url(#acaa43cc4-2093-49ff-8743-a3b81673898c04f1bc11-af5f-4650-b250-af671e3ae7c3)"><path d=" M -1.8511564187242158 0.5805838821461273 C -1.8236598253178893 0.5199959626056887 -1.796813782228747 0.46175002420711375 -1.7870988974921271 0.4444020157488633 C -1.4197114483675342 -0.21612340629901178 -0.9265509379206276 -0.24995202279259965 -0.5416420002532019 -0.2690348320966748 C -0.8877347689952928 -0.1718859847304739 -1.2906856354592986 0.09063275326399689 -1.3946435761453628 0.36290974601623327 C -1.4001081988097115 0.3769182628462703 -1.4260001014336499 0.4415395943532523 -1.449940353106035 0.502691324168584 C -1.5811780370926976 0.5153553703431066 -1.7130229013753988 0.5424182635379768 -1.8511564187242158 0.5805838821461273" fill="#3a868f" transform="matrix(1,0,0,1,0,0)" fill-rule="nonzero"></path></g><g clip-path="url(#acaa43cc4-2093-49ff-8743-a3b81673898c04f1bc11-af5f-4650-b250-af671e3ae7c3)"><path d=" M -1.6360844838630593 -0.3069402305779514 C -1.576897319354945 -0.3083206591477727 -1.5216041128571633 -0.2775395363883261 -1.4915958051205283 -0.22650496484774785 C -1.4615874973838936 -0.17547039330716957 -1.4615706755830051 -0.1121867783648684 -1.4915518474639118 -0.06113626065745925 C -1.5215330193448189 -0.010085742950050047 -1.5768098537966644 0.02072477110151505 -1.6359977438207676 0.01937580852173426 C -1.7246425791708981 0.017355487038243855 -1.7954569697074585 -0.05507197747276105 -1.795480539046107 -0.14373982946904323 C -1.7955041083847558 -0.23240768146532553 -1.724728232618527 -0.3048727829423864 -1.6360844838630588 -0.3069402305779514" fill="#225777" transform="matrix(1,0,0,1,0,0)" fill-rule="nonzero"></path></g><g clip-path="url(#acaa43cc4-2093-49ff-8743-a3b81673898c04f1bc11-af5f-4650-b250-af671e3ae7c3)"><path d=" M -2.941478750325239 1.644580610911756 C -2.562598245597055 1.5567996881130097 -2.1728318655613195 1.3112386283864792 -1.881125103335843 0.6657626036761359 C -1.4979075964930966 0.5537812090781309 -1.2074585648808431 0.5371704909793564 -0.8827472165635455 0.6200939714097922 C -1.041221273829661 0.9461064203614584 -1.4182802376697283 0.8400667186604043 -1.4600889380541113 1.3968944201490894 C -1.5864691796724637 1.0716192615568987 -1.5100512024138717 1.0027476679776455 -1.4385340375447353 0.8898121329144368 C -1.360901699694066 0.7670316030511712 -1.5713764123137859 0.8138278558673011 -1.627887549866536 0.8355562364612594 C -2.176084617147241 1.7515310830568682 -2.5612971449626865 1.6474430323073672 -2.941478750325239 1.644580610911756" fill="#173054" transform="matrix(1,0,0,1,0,0)" fill-rule="nonzero"></path></g></g><g><path d=" M 0.20700000000000002 0.013499999999999845 Q 0.228 0.013499999999999845 0.25125000000000003 0.024749999999999828 Q 0.2745 0.03600000000000003 0.28650000000000003 0.053999999999999826 L 0.651 0.615 L 0.5760000000000001 0.6119999999999999 L 0.9495 0.053999999999999826 Q 0.978 0.013499999999999845 1.0230000000000001 0.013499999999999845 Q 1.059 0.013499999999999845 1.0875000000000001 0.038999999999999924 Q 1.116 0.0645 1.116 0.10499999999999998 L 1.116 0.9734999999999999 Q 1.116 1.0125 1.0905 1.0387499999999998 Q 1.065 1.065 1.0230000000000001 1.065 Q 0.981 1.065 0.95475 1.0387499999999998 Q 0.9285 1.0125 0.9285 0.9734999999999999 L 0.9285 0.2669999999999999 L 0.987 0.28049999999999997 L 0.681 0.7469999999999999 Q 0.6675 0.7635 0.64725 0.7755 Q 0.627 0.7874999999999999 0.606 0.7859999999999999 Q 0.5865 0.7874999999999999 0.56625 0.7755 Q 0.546 0.7635 0.5325 0.7469999999999999 L 0.246 0.29399999999999993 L 0.28500000000000003 0.2144999999999999 L 0.28500000000000003 0.9734999999999999 Q 0.28500000000000003 1.0125 0.261 1.0387499999999998 Q 0.23700000000000002 1.065 0.198 1.065 Q 0.1605 1.065 0.1365 1.0387499999999998 Q 0.1125 1.0125 0.1125 0.9734999999999999 L 0.1125 0.10499999999999998 Q 0.1125 0.0674999999999999 0.14025 0.04049999999999998 Q 0.168 0.013499999999999845 0.20700000000000002 0.013499999999999845 M 1.5284545898437503 0.9734999999999999 Q 1.5284545898437503 1.0125 1.4999545898437503 1.0387499999999998 Q 1.4714545898437503 1.065 1.4339545898437502 1.065 Q 1.3919545898437502 1.065 1.3664545898437503 1.0387499999999998 Q 1.3409545898437503 1.0125 1.3409545898437503 0.9734999999999999 L 1.3409545898437503 0.10649999999999993 Q 1.3409545898437503 0.0674999999999999 1.3679545898437502 0.04125000000000001 Q 1.3949545898437503 0.014999999999999902 1.4369545898437501 0.014999999999999902 Q 1.4729545898437502 0.014999999999999902 1.50070458984375 0.04125000000000001 Q 1.5284545898437503 0.0674999999999999 1.5284545898437503 0.10649999999999993 L 1.5284545898437503 0.9734999999999999 M 2.5499912109375003 0.014999999999999902 Q 2.5859912109375003 0.014999999999999902 2.6084912109375002 0.038999999999999924 Q 2.6309912109375 0.06299999999999994 2.6309912109375 0.09899999999999998 L 2.6309912109375 0.9734999999999999 Q 2.6309912109375 1.0125 2.6047412109375 1.0387499999999998 Q 2.5784912109375 1.065 2.5394912109375003 1.065 Q 2.5199912109375004 1.065 2.4997412109375 1.05825 Q 2.4794912109375002 1.0514999999999999 2.4689912109375003 1.0394999999999999 L 1.8794912109375002 0.2909999999999999 L 1.9184912109375003 0.2669999999999999 L 1.9184912109375003 0.981 Q 1.9184912109375003 1.017 1.8952412109375003 1.041 Q 1.8719912109375003 1.065 1.8344912109375002 1.065 Q 1.7984912109375002 1.065 1.7759912109375002 1.041 Q 1.7534912109375003 1.017 1.7534912109375003 0.981 L 1.7534912109375003 0.10649999999999993 Q 1.7534912109375003 0.0674999999999999 1.7797412109375002 0.04125000000000001 Q 1.8059912109375003 0.014999999999999902 1.8449912109375002 0.014999999999999902 Q 1.8659912109375003 0.014999999999999902 1.8884912109375003 0.023249999999999993 Q 1.9109912109375002 0.03149999999999986 1.9214912109375002 0.04799999999999982 L 2.4929912109375003 0.7769999999999999 L 2.4674912109375002 0.7949999999999999 L 2.4674912109375002 0.09899999999999998 Q 2.4674912109375002 0.06299999999999994 2.4899912109375 0.038999999999999924 Q 2.5124912109375 0.014999999999999902 2.5499912109375003 0.014999999999999902 M 3.3059692382812504 0.014999999999999902 Q 3.4139692382812505 0.014999999999999902 3.4979692382812506 0.05549999999999988 Q 3.5819692382812507 0.09599999999999997 3.63971923828125 0.16874999999999996 Q 3.6974692382812506 0.24149999999999994 3.7267192382812504 0.3367499999999999 Q 3.75596923828125 0.43199999999999994 3.75596923828125 0.5399999999999999 Q 3.75596923828125 0.6855 3.7034692382812504 0.80475 Q 3.6509692382812506 0.9239999999999999 3.5512192382812504 0.9944999999999999 Q 3.45146923828125 1.065 3.3059692382812504 1.065 L 2.9474692382812506 1.065 Q 2.9084692382812505 1.065 2.8822192382812504 1.0387499999999998 Q 2.8559692382812503 1.0125 2.8559692382812503 0.9734999999999999 L 2.8559692382812503 0.10649999999999993 Q 2.8559692382812503 0.0674999999999999 2.8822192382812504 0.04125000000000001 Q 2.9084692382812505 0.014999999999999902 2.9474692382812506 0.014999999999999902 L 3.3059692382812504 0.014999999999999902 M 3.2909692382812503 0.8925 Q 3.3854692382812503 0.8925 3.4454692382812504 0.84375 Q 3.5054692382812505 0.7949999999999999 3.5332192382812506 0.71475 Q 3.5609692382812503 0.6345 3.5609692382812503 0.5399999999999999 Q 3.5609692382812503 0.4694999999999999 3.54521923828125 0.40574999999999994 Q 3.5294692382812505 0.34199999999999997 3.4964692382812506 0.2932499999999999 Q 3.4634692382812506 0.24449999999999994 3.4124692382812505 0.21599999999999997 Q 3.3614692382812503 0.1874999999999999 3.2909692382812503 0.1874999999999999 L 3.0284692382812506 0.1874999999999999 L 3.0434692382812503 0.17399999999999993 L 3.0434692382812503 0.9089999999999999 L 3.0344692382812504 0.8925 L 3.2909692382812503 0.8925 M 4.266009521484375 1.0799999999999998 Q 4.161009521484376 1.0799999999999998 4.077009521484375 1.05375 Q 3.9930095214843755 1.0274999999999999 3.9165095214843753 0.9614999999999999 Q 3.8970095214843754 0.945 3.8865095214843755 0.9239999999999999 Q 3.8760095214843755 0.9029999999999999 3.8760095214843755 0.8819999999999999 Q 3.8760095214843755 0.8474999999999999 3.9007595214843755 0.8212499999999999 Q 3.9255095214843756 0.7949999999999999 3.9630095214843752 0.7949999999999999 Q 3.9915095214843754 0.7949999999999999 4.014009521484375 0.813 Q 4.071009521484376 0.8594999999999999 4.127259521484375 0.8835 Q 4.183509521484376 0.9075 4.266009521484375 0.9075 Q 4.3215095214843755 0.9075 4.3680095214843755 0.89025 Q 4.4145095214843755 0.873 4.443009521484376 0.84375 Q 4.471509521484375 0.8145 4.471509521484375 0.7769999999999999 Q 4.471509521484375 0.732 4.444509521484376 0.7004999999999999 Q 4.417509521484376 0.6689999999999999 4.362009521484375 0.6472499999999999 Q 4.306509521484376 0.6255 4.221009521484375 0.6134999999999999 Q 4.140009521484376 0.6014999999999999 4.078509521484375 0.5767499999999999 Q 4.0170095214843755 0.5519999999999999 3.9757595214843753 0.5137499999999999 Q 3.9345095214843755 0.4754999999999999 3.9135095214843756 0.42374999999999996 Q 3.8925095214843752 0.3719999999999999 3.8925095214843752 0.3074999999999999 Q 3.8925095214843752 0.20999999999999996 3.9427595214843754 0.1409999999999999 Q 3.9930095214843755 0.07199999999999995 4.078509521484375 0.03600000000000003 Q 4.164009521484376 0 4.267509521484375 0 Q 4.365009521484375 0 4.448259521484376 0.029249999999999998 Q 4.5315095214843755 0.058499999999999996 4.584009521484376 0.10349999999999993 Q 4.6275095214843756 0.1379999999999999 4.6275095214843756 0.18299999999999994 Q 4.6275095214843756 0.21599999999999997 4.6020095214843755 0.24299999999999988 Q 4.576509521484375 0.2699999999999999 4.542009521484376 0.2699999999999999 Q 4.519509521484375 0.2699999999999999 4.501509521484375 0.25649999999999995 Q 4.477509521484375 0.23549999999999993 4.437009521484375 0.2167499999999999 Q 4.396509521484376 0.19799999999999995 4.351509521484376 0.18524999999999991 Q 4.306509521484376 0.17249999999999988 4.267509521484375 0.17249999999999988 Q 4.2030095214843755 0.17249999999999988 4.1587595214843756 0.18899999999999995 Q 4.114509521484376 0.2054999999999999 4.092009521484376 0.23399999999999987 Q 4.069509521484376 0.26249999999999996 4.069509521484376 0.29999999999999993 Q 4.069509521484376 0.345 4.095759521484376 0.37424999999999997 Q 4.122009521484375 0.40349999999999997 4.171509521484375 0.42074999999999996 Q 4.221009521484375 0.43799999999999994 4.290009521484375 0.4514999999999999 Q 4.380009521484375 0.46799999999999997 4.448259521484376 0.49049999999999994 Q 4.516509521484376 0.5129999999999999 4.561509521484376 0.5482499999999999 Q 4.606509521484376 0.5834999999999999 4.629009521484376 0.6367499999999999 Q 4.651509521484376 0.69 4.651509521484376 0.7665 Q 4.651509521484376 0.8639999999999999 4.597509521484375 0.9344999999999999 Q 4.543509521484376 1.005 4.455759521484375 1.0425 Q 4.3680095214843755 1.0799999999999998 4.266009521484375 1.0799999999999998 M 5.25748681640625 0.014999999999999902 Q 5.33548681640625 0.014999999999999902 5.40373681640625 0.05999999999999983 Q 5.47198681640625 0.10499999999999998 5.51398681640625 0.18149999999999988 Q 5.55598681640625 0.2579999999999999 5.55598681640625 0.3524999999999999 Q 5.55598681640625 0.4454999999999999 5.51398681640625 0.5219999999999999 Q 5.47198681640625 0.5984999999999999 5.40373681640625 0.64425 Q 5.33548681640625 0.69 5.25748681640625 0.69 L 4.98148681640625 0.69 L 4.99648681640625 0.6629999999999999 L 4.99648681640625 0.9734999999999999 Q 4.99648681640625 1.0125 4.97248681640625 1.0387499999999998 Q 4.94848681640625 1.065 4.90948681640625 1.065 Q 4.87198681640625 1.065 4.84798681640625 1.0387499999999998 Q 4.82398681640625 1.0125 4.82398681640625 0.9734999999999999 L 4.82398681640625 0.10649999999999993 Q 4.82398681640625 0.0674999999999999 4.85023681640625 0.04125000000000001 Q 4.87648681640625 0.014999999999999902 4.91548681640625 0.014999999999999902 L 5.25748681640625 0.014999999999999902 M 5.25748681640625 0.5189999999999999 Q 5.2859868164062505 0.5189999999999999 5.31298681640625 0.4949999999999999 Q 5.33998681640625 0.471 5.35798681640625 0.43274999999999997 Q 5.37598681640625 0.39449999999999996 5.37598681640625 0.3524999999999999 Q 5.37598681640625 0.30899999999999994 5.35798681640625 0.27149999999999996 Q 5.33998681640625 0.23399999999999987 5.31298681640625 0.21074999999999988 Q 5.2859868164062505 0.1874999999999999 5.25748681640625 0.1874999999999999 L 4.97848681640625 0.1874999999999999 L 4.99648681640625 0.16049999999999998 L 4.99648681640625 0.5429999999999999 L 4.97998681640625 0.5189999999999999 L 5.25748681640625 0.5189999999999999 M 6.054060791015625 0.25049999999999994 L 5.730060791015625 1.0125 Q 5.719560791015625 1.041 5.697810791015625 1.0567499999999999 Q 5.676060791015625 1.0725 5.650560791015625 1.0725 Q 5.610060791015625 1.0725 5.590560791015625 1.05 Q 5.571060791015625 1.0274999999999999 5.571060791015625 0.9944999999999999 Q 5.571060791015625 0.981 5.575560791015625 0.966 L 5.949060791015625 0.06899999999999995 Q 5.961060791015625 0.038999999999999924 5.985810791015625 0.022499999999999964 Q 6.010560791015625 0.006000000000000005 6.039060791015625 0.008999999999999897 Q 6.066060791015625 0.008999999999999897 6.089310791015625 0.024749999999999828 Q 6.112560791015625 0.04049999999999998 6.123060791015625 0.06899999999999995 L 6.492060791015625 0.948 Q 6.499560791015625 0.9674999999999999 6.499560791015625 0.984 Q 6.499560791015625 1.0245 6.473310791015625 1.0485 Q 6.447060791015625 1.0725 6.415560791015625 1.0725 Q 6.388560791015625 1.0725 6.366810791015625 1.056 Q 6.345060791015625 1.0394999999999999 6.333060791015625 1.011 L 6.010560791015625 0.25949999999999995 L 6.054060791015625 0.25049999999999994 M 5.776560791015625 0.8294999999999999 L 5.859060791015625 0.6569999999999999 L 6.264060791015625 0.6569999999999999 L 6.292560791015625 0.8294999999999999 L 5.776560791015625 0.8294999999999999 M 7.35451904296875 0.06599999999999995 Q 7.39351904296875 0.08549999999999991 7.40026904296875 0.12749999999999995 Q 7.40701904296875 0.16949999999999987 7.37851904296875 0.20399999999999996 Q 7.35901904296875 0.23099999999999998 7.32826904296875 0.23399999999999987 Q 7.29751904296875 0.23699999999999988 7.26601904296875 0.22199999999999998 Q 7.23001904296875 0.2054999999999999 7.19026904296875 0.1964999999999999 Q 7.1505190429687495 0.1874999999999999 7.10701904296875 0.1874999999999999 Q 7.02601904296875 0.1874999999999999 6.96226904296875 0.21299999999999997 Q 6.89851904296875 0.23849999999999993 6.85351904296875 0.28574999999999995 Q 6.80851904296875 0.33299999999999996 6.78526904296875 0.39749999999999996 Q 6.76201904296875 0.46199999999999997 6.76201904296875 0.5399999999999999 Q 6.76201904296875 0.6315 6.78826904296875 0.699 Q 6.81451904296875 0.7665 6.86101904296875 0.8114999999999999 Q 6.90751904296875 0.8564999999999999 6.97051904296875 0.87825 Q 7.03351904296875 0.8999999999999999 7.10701904296875 0.8999999999999999 Q 7.14751904296875 0.8999999999999999 7.18801904296875 0.8925 Q 7.22851904296875 0.885 7.26601904296875 0.8654999999999999 Q 7.29751904296875 0.8504999999999999 7.32826904296875 0.855 Q 7.35901904296875 0.8594999999999999 7.38001904296875 0.8865 Q 7.4100190429687505 0.9239999999999999 7.40176904296875 0.9637499999999999 Q 7.39351904296875 1.0034999999999998 7.35601904296875 1.0214999999999999 Q 7.3170190429687505 1.041 7.27576904296875 1.05375 Q 7.23451904296875 1.0665 7.19251904296875 1.07325 Q 7.1505190429687495 1.0799999999999998 7.10701904296875 1.0799999999999998 Q 6.99901904296875 1.0799999999999998 6.90226904296875 1.0454999999999999 Q 6.80551904296875 1.011 6.72976904296875 0.9435 Q 6.65401904296875 0.8759999999999999 6.61051904296875 0.7747499999999999 Q 6.56701904296875 0.6735 6.56701904296875 0.5399999999999999 Q 6.56701904296875 0.4245 6.60676904296875 0.32699999999999996 Q 6.64651904296875 0.22949999999999993 6.71926904296875 0.1582499999999999 Q 6.79201904296875 0.08699999999999997 6.89101904296875 0.047250000000000014 Q 6.99001904296875 0.00749999999999984 7.10701904296875 0.00749999999999984 Q 7.17301904296875 0.00749999999999984 7.23601904296875 0.022499999999999964 Q 7.29901904296875 0.03749999999999987 7.35451904296875 0.06599999999999995 M 7.651540283203125 0.014999999999999902 L 8.154040283203125 0.014999999999999902 Q 8.193040283203125 0.014999999999999902 8.219290283203126 0.03974999999999995 Q 8.245540283203125 0.0645 8.245540283203125 0.10349999999999993 Q 8.245540283203125 0.1409999999999999 8.219290283203126 0.1642499999999999 Q 8.193040283203125 0.1874999999999999 8.154040283203125 0.1874999999999999 L 7.734040283203125 0.1874999999999999 L 7.747540283203125 0.16199999999999992 L 7.747540283203125 0.4544999999999999 L 7.735540283203125 0.4424999999999999 L 8.086540283203124 0.4424999999999999 Q 8.125540283203126 0.4424999999999999 8.151790283203125 0.46724999999999994 Q 8.178040283203124 0.4919999999999999 8.178040283203124 0.5309999999999999 Q 8.178040283203124 0.5685 8.151790283203125 0.59175 Q 8.125540283203126 0.615 8.086540283203124 0.615 L 7.740040283203125 0.615 L 7.747540283203125 0.603 L 7.747540283203125 0.9059999999999999 L 7.735540283203125 0.8925 L 8.154040283203125 0.8925 Q 8.193040283203125 0.8925 8.219290283203126 0.91875 Q 8.245540283203125 0.945 8.245540283203125 0.9794999999999999 Q 8.245540283203125 1.017 8.219290283203126 1.041 Q 8.193040283203125 1.065 8.154040283203125 1.065 L 7.651540283203125 1.065 Q 7.612540283203125 1.065 7.586290283203125 1.0387499999999998 Q 7.560040283203125 1.0125 7.560040283203125 0.9734999999999999 L 7.560040283203125 0.10649999999999993 Q 7.560040283203125 0.0674999999999999 7.586290283203125 0.04125000000000001 Q 7.612540283203125 0.014999999999999902 7.651540283203125 0.014999999999999902" fill="#173054" fill-rule="nonzero"></path></g><g></g></g><defs><clipPath id="SvgjsClipPath2126"><path d=" M -2.941478750325239 -0.5844814233012114 h 2.541478750325239 v 2.233962846602423 h -2.541478750325239 Z"></path></clipPath><clipPath id="acaa43cc4-2093-49ff-8743-a3b81673898c04f1bc11-af5f-4650-b250-af671e3ae7c3"><path d=" M -2.941478750325239 1.6494814233012114 L -0.4000388812127351 1.6494814233012114 L -0.4000388812127351 -0.5844649958888085 L -2.941478750325239 -0.5844649958888085 Z"></path></clipPath></defs></svg>